<svg version="1.1" xmlns="http://www.w3.org/2000/svg" viewBox="0 0 429 446.61824282130306" width="1287" height="1339.8547284639092">
  <!-- svg-source:excalidraw -->
  
  <defs>
    <style>
      @font-face {
        font-family: "Virgil";
        src: url("https://excalidraw.com/Virgil.woff2");
      }
      @font-face {
        font-family: "Cascadia";
        src: url("https://excalidraw.com/Cascadia.woff2");
      }
    </style>
  </defs>
  <rect x="0" y="0" width="429" height="446.61824282130306" fill="#ffffff"></rect><g stroke-linecap="round" transform="translate(277 273.61824282130306) rotate(0 71 63)"><path d="M7.92 34.71 C7.92 34.71, 7.92 34.71, 7.92 34.71 M7.92 34.71 C7.92 34.71, 7.92 34.71, 7.92 34.71 M1.1 67.11 C13.24 54.41, 27.16 42.49, 45.05 15.74 M2.17 67.36 C10.73 53.16, 22.49 42.62, 42.44 18.47 M2.84 86.18 C24.66 63.28, 46.53 35.32, 69.81 11.88 M6.52 86.03 C28.49 59.65, 49.16 34.89, 70.96 11.05 M19.67 101.59 C40.97 65.08, 66.76 34.97, 94.26 1.81 M14.66 100.22 C46.23 62.12, 82.27 23.01, 96.6 3.7 M24.23 109.41 C56.79 69.3, 94.13 36.89, 115.03 11 M25.22 112.5 C54.37 76.86, 82.23 47.14, 112.05 14.19 M38.98 122.38 C61.6 100.01, 81.64 73.59, 125.64 17.65 M35.5 123.39 C70.07 86.1, 104.33 46.98, 125.66 23.28 M52.55 131.09 C78.53 106.83, 102.53 74.55, 134.78 33.47 M54.22 127.02 C72.01 103.32, 95.47 81.61, 138.17 32.19 M71.66 132.39 C96.8 99.06, 127.34 74, 137.93 49.62 M71.93 132.23 C92.96 107.53, 114.22 81.11, 142.75 50.97 M99.82 120.88 C114.73 105.78, 133.88 91.43, 142.76 78.11 M100.07 124.5 C113.05 109.6, 125.82 94.72, 140.85 76.59" stroke="#000000" stroke-width="2" fill="none"></path><path d="M95.69 2.86 C105.97 5.55, 119.07 13.3, 126.23 20.93 C133.39 28.55, 136.43 39.26, 138.65 48.61 C140.87 57.95, 142.11 67.21, 139.56 76.97 C137.01 86.73, 130.33 99.43, 123.34 107.15 C116.36 114.86, 107.85 119.91, 97.67 123.26 C87.48 126.62, 73.69 128.62, 62.23 127.28 C50.77 125.95, 38.02 121.31, 28.91 115.27 C19.79 109.22, 12.04 99.4, 7.54 91.02 C3.05 82.63, 1.82 74.39, 1.93 64.95 C2.04 55.5, 3.2 43.62, 8.21 34.37 C13.22 25.12, 23.3 14.99, 31.99 9.44 C40.69 3.89, 49.6 2.11, 60.37 1.09 C71.14 0.06, 86.7 0.61, 96.59 3.3 C106.49 5.98, 113.9 12.3, 119.75 17.19 C125.6 22.07, 133.08 32.14, 131.69 32.62 M59.67 -1.66 C69.22 -4.27, 82.39 -2.64, 93.03 0.95 C103.66 4.54, 115.66 12.69, 123.47 19.89 C131.28 27.09, 137.51 34.41, 139.9 44.13 C142.29 53.85, 140.24 68.74, 137.81 78.22 C135.37 87.7, 131.38 93.47, 125.3 101.01 C119.22 108.55, 111.2 119.72, 101.35 123.47 C91.5 127.21, 77.4 124.88, 66.2 123.49 C55 122.1, 43.02 120, 34.15 115.12 C25.28 110.25, 18.92 102.7, 12.98 94.22 C7.03 85.75, -0.76 74.2, -1.54 64.28 C-2.31 54.37, 3.1 42.81, 8.32 34.71 C13.55 26.61, 22 20.8, 29.83 15.67 C37.66 10.55, 50.29 6.55, 55.3 3.96 C60.31 1.38, 58.57 0.64, 59.88 0.16 C61.19 -0.33, 62.97 -0.26, 63.14 1.05" stroke="#000000" stroke-width="4" fill="none"></path></g><g stroke-linecap="round"><g transform="translate(314 282.61824282130306) rotate(0 -149.193579917686 -115.86076583500062)"><path d="M-2.47 1.05 C-3.64 -12.03, -2.39 -33.15, -8.25 -76.09 C-14.11 -119.02, 7.51 -228.1, -37.63 -256.57 C-82.78 -285.04, -238.12 -271.74, -279.13 -246.9 C-320.15 -222.07, -286.13 -144.92, -283.72 -107.57 C-281.31 -70.22, -268.3 -46.73, -264.67 -22.81 C-261.04 1.12, -262.12 26.47, -261.93 35.98 M1.39 -0.86 C1.19 -12.41, 2.53 -31.53, -3.07 -73.59 C-8.67 -115.66, 13.51 -224.78, -32.23 -253.23 C-77.97 -281.67, -235.15 -267.46, -277.53 -244.25 C-319.91 -221.03, -289.23 -151.74, -286.5 -113.97 C-283.77 -76.19, -265.6 -43.41, -261.16 -17.6 C-256.71 8.21, -258.98 31.19, -259.83 40.9" stroke="#000000" stroke-width="4" fill="none"></path></g></g><g stroke-linecap="round" transform="translate(10 310.61824282130306) rotate(0 71 63)"><path d="M26 14.65 C26 14.65, 26 14.65, 26 14.65 M26 14.65 C26 14.65, 26 14.65, 26 14.65 M3.28 64.85 C22.34 47.26, 35.34 24.26, 58.92 4.72 M2 64.89 C15.99 54.08, 27.49 40.89, 57.36 1.94 M6.17 81.7 C29.67 57.87, 50.42 41.18, 71 11.9 M7.51 83.53 C33.58 55, 57.97 24.59, 70.91 9.97 M17.28 102.36 C40.98 76.96, 65.83 47.24, 99.43 7.27 M17.36 100.95 C45.69 62.73, 78.62 28.37, 98.47 5.79 M28.69 107.36 C55.83 78.64, 87.35 40.42, 109.4 12.47 M25.38 110.05 C58.15 73.22, 93.56 34.43, 109.47 14.53 M41.16 121.6 C69.85 85.68, 105.98 53.45, 128.74 19.59 M38.04 123.51 C71.41 87.91, 101.4 48.6, 125.1 23.14 M53.44 128.64 C74.05 103.44, 91 84.95, 136.36 40.21 M54.45 126.51 C73.84 105.02, 92.68 83.8, 135.22 37.82 M68.3 133.7 C100.56 99.22, 127.29 68.23, 143.41 54.02 M72.81 132.15 C96.63 103.78, 122.51 74.69, 142.16 51.07 M102.29 119.58 C108.94 115.99, 117.33 101.1, 141.41 75.19 M102.84 123.82 C114.81 109.03, 124.06 95.5, 141.37 76.55" stroke="#000000" stroke-width="2" fill="none"></path><path d="M60.27 1.28 C70.04 -1.15, 82.8 -0.59, 93.18 2.57 C103.55 5.74, 115.06 13.01, 122.54 20.27 C130.02 27.52, 135.04 36.55, 138.04 46.1 C141.05 55.66, 142.49 68.11, 140.56 77.6 C138.62 87.08, 133.69 95.87, 126.43 103 C119.16 110.12, 107.18 116.44, 96.95 120.35 C86.73 124.27, 76 127.31, 65.08 126.5 C54.17 125.68, 40.61 120.83, 31.44 115.49 C22.28 110.15, 15.28 102.93, 10.07 94.46 C4.86 85.99, 0.46 74.42, 0.2 64.66 C-0.07 54.91, 4.18 44.24, 8.47 35.93 C12.76 27.61, 17.38 20.34, 25.92 14.74 C34.46 9.14, 49.34 4.44, 59.72 2.33 C70.1 0.21, 79.61 0.07, 88.21 2.06 C96.8 4.05, 111.41 13.28, 111.31 14.29 M23.27 14.74 C30.44 7.71, 41.19 1.72, 51.97 -0.17 C62.75 -2.07, 76.83 1.16, 87.94 3.38 C99.05 5.59, 110.71 7.46, 118.65 13.13 C126.59 18.8, 131.83 27.59, 135.58 37.39 C139.33 47.19, 142.41 62.44, 141.15 71.93 C139.89 81.42, 133.42 87.03, 128.02 94.33 C122.63 101.62, 117.5 110.21, 108.76 115.7 C100.01 121.19, 86.95 126.29, 75.54 127.28 C64.14 128.28, 51 126.49, 40.3 121.67 C29.61 116.85, 17.56 106.7, 11.35 98.36 C5.14 90.03, 4.8 80.58, 3.03 71.63 C1.26 62.69, -2.02 53.89, 0.73 44.68 C3.49 35.47, 15.45 21.05, 19.55 16.39 C23.64 11.72, 24.6 16.28, 25.31 16.69 C26.01 17.09, 23.29 18.31, 23.78 18.81" stroke="#000000" stroke-width="4" fill="none"></path></g></svg>